<?xml version="1.0" encoding="UTF-8" standalone="no"?><svg xmlns="http://www.w3.org/2000/svg" xmlns:xlink="http://www.w3.org/1999/xlink" clip-rule="evenodd" stroke-miterlimit="4.00" viewBox="0 0 1920 1080"><desc>SVG generated by Keynote</desc><defs></defs><g transform="matrix(1.00, 0.00, -0.00, -1.00, 0.0, 1080.0)"><path d="M 0.0 1080.0 L 1920.0 1080.0 L 1920.0 0.0 L 0.0 0.0 Z M 0.0 1080.0 " fill="#000000"></path><image xlink:href="../../E457325F-9032-440D-8041-0FDFFC0F55DD/assets/140BD59741AC706E3DA1E757638DBFFE.jpeg" width="1152.00" height="768.00" transform="matrix(1.04, 0.00, -0.00, -1.04, 360.0, 940.0)"></image><path d="M 1204.2 246.1 L 1779.8 246.1 L 1779.8 171.3 L 1204.2 171.3 Z M 1204.2 246.1 " fill="#10DAE2"></path><g><clipPath id="clip-10"><path d="M 1193.9 159.6 L 1791.1 159.6 L 1791.1 256.4 L 1193.9 256.4 Z M 1193.9 159.6 "></path></clipPath><g clip-path="url(#clip-10)"><text xml:space="preserve" font-family="HelveticaNeue-Bold" font-weight="bold" font-size="50.0" fill="#002451" transform="matrix(1.00, 0.00, -0.00, -1.00, 1222.0, 188.0)">H</text><text xml:space="preserve" font-family="HelveticaNeue-Bold" font-weight="bold" font-size="50.0" fill="#002451" transform="matrix(1.00, 0.00, -0.00, -1.00, 1257.1, 188.0)">y</text><text xml:space="preserve" font-family="HelveticaNeue-Bold" font-weight="bold" font-size="50.0" fill="#002451" transform="matrix(1.00, 0.00, -0.00, -1.00, 1281.0, 188.0)">p</text><text xml:space="preserve" font-family="HelveticaNeue-Bold" font-weight="bold" font-size="50.0" fill="#002451" transform="matrix(1.00, 0.00, -0.00, -1.00, 1309.6, 188.0)">e</text><text xml:space="preserve" font-family="HelveticaNeue-Bold" font-weight="bold" font-size="50.0" fill="#002451" transform="matrix(1.00, 0.00, -0.00, -1.00, 1336.3, 188.0)">r</text><text xml:space="preserve" font-family="HelveticaNeue-Bold" font-weight="bold" font-size="50.0" fill="#002451" transform="matrix(1.00, 0.00, -0.00, -1.00, 1353.7, 188.0)">t</text><text xml:space="preserve" font-family="HelveticaNeue-Bold" font-weight="bold" font-size="50.0" fill="#002451" transform="matrix(1.00, 0.00, -0.00, -1.00, 1369.3, 188.0)">e</text><text xml:space="preserve" font-family="HelveticaNeue-Bold" font-weight="bold" font-size="50.0" fill="#002451" transform="matrix(1.00, 0.00, -0.00, -1.00, 1396.0, 188.0)">x</text><text xml:space="preserve" font-family="HelveticaNeue-Bold" font-weight="bold" font-size="50.0" fill="#002451" transform="matrix(1.00, 0.00, -0.00, -1.00, 1420.9, 188.0)">t</text><text xml:space="preserve" font-family="HelveticaNeue-Bold" font-weight="bold" font-size="50.0" fill="#002451" transform="matrix(1.00, 0.00, -0.00, -1.00, 1436.5, 188.0)"> </text><text xml:space="preserve" font-family="HelveticaNeue-Bold" font-weight="bold" font-size="50.0" fill="#002451" transform="matrix(1.00, 0.00, -0.00, -1.00, 1448.3, 192.0)">+</text><text xml:space="preserve" font-family="HelveticaNeue-Bold" font-weight="bold" font-size="50.0" fill="#002451" transform="matrix(1.00, 0.00, -0.00, -1.00, 1476.3, 188.0)"> </text><text xml:space="preserve" font-family="HelveticaNeue-Bold" font-weight="bold" font-size="50.0" fill="#002451" transform="matrix(1.00, 0.00, -0.00, -1.00, 1488.2, 191.0)">H</text><text xml:space="preserve" font-family="HelveticaNeue-Bold" font-weight="bold" font-size="50.0" fill="#002451" transform="matrix(1.00, 0.00, -0.00, -1.00, 1523.8, 191.0)">y</text><text xml:space="preserve" font-family="HelveticaNeue-Bold" font-weight="bold" font-size="50.0" fill="#002451" transform="matrix(1.00, 0.00, -0.00, -1.00, 1548.3, 191.0)">p</text><text xml:space="preserve" font-family="HelveticaNeue-Bold" font-weight="bold" font-size="50.0" fill="#002451" transform="matrix(1.00, 0.00, -0.00, -1.00, 1577.3, 191.0)">e</text><text xml:space="preserve" font-family="HelveticaNeue-Bold" font-weight="bold" font-size="50.0" fill="#002451" transform="matrix(1.00, 0.00, -0.00, -1.00, 1604.5, 191.0)">r</text><text xml:space="preserve" font-family="HelveticaNeue-Bold" font-weight="bold" font-size="50.0" fill="#002451" transform="matrix(1.00, 0.00, -0.00, -1.00, 1622.5, 191.0)">m</text><text xml:space="preserve" font-family="HelveticaNeue-Bold" font-weight="bold" font-size="50.0" fill="#002451" transform="matrix(1.00, 0.00, -0.00, -1.00, 1666.3, 191.0)">e</text><text xml:space="preserve" font-family="HelveticaNeue-Bold" font-weight="bold" font-size="50.0" fill="#002451" transform="matrix(1.00, 0.00, -0.00, -1.00, 1693.5, 191.0)">d</text><text xml:space="preserve" font-family="HelveticaNeue-Bold" font-weight="bold" font-size="50.0" fill="#002451" transform="matrix(1.00, 0.00, -0.00, -1.00, 1722.5, 191.0)">i</text><text xml:space="preserve" font-family="HelveticaNeue-Bold" font-weight="bold" font-size="50.0" fill="#002451" transform="matrix(1.00, 0.00, -0.00, -1.00, 1733.9, 191.0)">a</text><text xml:space="preserve" font-family="HelveticaNeue-Bold" font-weight="bold" font-size="50.0" fill="#002451" transform="matrix(1.00, 0.00, -0.00, -1.00, 1761.1, 191.0)"> </text><text xml:space="preserve" font-family="HelveticaNeue-Bold" font-weight="bold" font-size="50.0" fill="#002451" transform="matrix(1.00, 0.00, -0.00, -1.00, 1773.5, 188.0)"> </text></g></g></g></svg>