<?xml version="1.0" encoding="UTF-8" standalone="no"?><svg xmlns="http://www.w3.org/2000/svg" xmlns:xlink="http://www.w3.org/1999/xlink" clip-rule="evenodd" stroke-miterlimit="4.00" viewBox="0 0 1920 1080"><desc>SVG generated by Keynote</desc><defs></defs><g transform="matrix(1.00, 0.00, -0.00, -1.00, 0.0, 1080.0)"><path d="M 0.0 1080.0 L 1920.0 1080.0 L 1920.0 0.0 L 0.0 0.0 Z M 0.0 1080.0 " fill="#000000"></path><path d="M 72.9 1014.7 L 1853.2 1014.7 L 1853.2 65.3 L 72.9 65.3 Z M 72.9 1014.7 " fill="#00FCFF" fill-opacity="0.23"></path><path d="M 0.0 0.0 L 1780.3 0.0 L 1780.3 949.4 L 0.0 949.4 Z M 0.0 0.0 " fill="none" stroke="#10DAE2" stroke-width="9.00" transform="matrix(1.00, 0.00, 0.00, -1.00, 72.9, 1014.7)"></path><text xml:space="preserve" font-family="HelveticaNeue-Bold" font-weight="bold" font-size="50.0" fill="#10DAE2" transform="matrix(1.00, 0.00, -0.00, -1.00, 710.0, 557.0)">T</text><text xml:space="preserve" font-family="HelveticaNeue-Bold" font-weight="bold" font-size="50.0" fill="#10DAE2" transform="matrix(1.00, 0.00, -0.00, -1.00, 733.0, 557.0)">e</text><text xml:space="preserve" font-family="HelveticaNeue-Bold" font-weight="bold" font-size="50.0" fill="#10DAE2" transform="matrix(1.00, 0.00, -0.00, -1.00, 759.7, 557.0)">d</text><text xml:space="preserve" font-family="HelveticaNeue-Bold" font-weight="bold" font-size="50.0" fill="#10DAE2" transform="matrix(1.00, 0.00, -0.00, -1.00, 788.3, 557.0)"> </text><text xml:space="preserve" font-family="HelveticaNeue-Bold" font-weight="bold" font-size="50.0" fill="#10DAE2" transform="matrix(1.00, 0.00, -0.00, -1.00, 800.2, 557.0)">N</text><text xml:space="preserve" font-family="HelveticaNeue-Bold" font-weight="bold" font-size="50.0" fill="#10DAE2" transform="matrix(1.00, 0.00, -0.00, -1.00, 835.2, 557.0)">e</text><text xml:space="preserve" font-family="HelveticaNeue-Bold" font-weight="bold" font-size="50.0" fill="#10DAE2" transform="matrix(1.00, 0.00, -0.00, -1.00, 861.9, 557.0)">l</text><text xml:space="preserve" font-family="HelveticaNeue-Bold" font-weight="bold" font-size="50.0" fill="#10DAE2" transform="matrix(1.00, 0.00, -0.00, -1.00, 872.8, 557.0)">s</text><text xml:space="preserve" font-family="HelveticaNeue-Bold" font-weight="bold" font-size="50.0" fill="#10DAE2" transform="matrix(1.00, 0.00, -0.00, -1.00, 897.7, 557.0)">o</text><text xml:space="preserve" font-family="HelveticaNeue-Bold" font-weight="bold" font-size="50.0" fill="#10DAE2" transform="matrix(1.00, 0.00, -0.00, -1.00, 926.2, 557.0)">n</text><text xml:space="preserve" font-family="HelveticaNeue-Bold" font-weight="bold" font-size="50.0" fill="#10DAE2" transform="matrix(1.00, 0.00, -0.00, -1.00, 953.9, 557.0)"> </text><text xml:space="preserve" font-family="HelveticaNeue-Bold" font-weight="bold" font-size="50.0" fill="#10DAE2" transform="matrix(1.00, 0.00, -0.00, -1.00, 965.8, 557.0)">I</text><text xml:space="preserve" font-family="HelveticaNeue-Bold" font-weight="bold" font-size="50.0" fill="#10DAE2" transform="matrix(1.00, 0.00, -0.00, -1.00, 978.5, 557.0)">n</text><text xml:space="preserve" font-family="HelveticaNeue-Bold" font-weight="bold" font-size="50.0" fill="#10DAE2" transform="matrix(1.00, 0.00, -0.00, -1.00, 1006.2, 557.0)">t</text><text xml:space="preserve" font-family="HelveticaNeue-Bold" font-weight="bold" font-size="50.0" fill="#10DAE2" transform="matrix(1.00, 0.00, -0.00, -1.00, 1021.8, 557.0)">e</text><text xml:space="preserve" font-family="HelveticaNeue-Bold" font-weight="bold" font-size="50.0" fill="#10DAE2" transform="matrix(1.00, 0.00, -0.00, -1.00, 1048.5, 557.0)">r</text><text xml:space="preserve" font-family="HelveticaNeue-Bold" font-weight="bold" font-size="50.0" fill="#10DAE2" transform="matrix(1.00, 0.00, -0.00, -1.00, 1065.9, 557.0)">v</text><text xml:space="preserve" font-family="HelveticaNeue-Bold" font-weight="bold" font-size="50.0" fill="#10DAE2" transform="matrix(1.00, 0.00, -0.00, -1.00, 1089.9, 557.0)">i</text><text xml:space="preserve" font-family="HelveticaNeue-Bold" font-weight="bold" font-size="50.0" fill="#10DAE2" transform="matrix(1.00, 0.00, -0.00, -1.00, 1100.8, 557.0)">e</text><text xml:space="preserve" font-family="HelveticaNeue-Bold" font-weight="bold" font-size="50.0" fill="#10DAE2" transform="matrix(1.00, 0.00, -0.00, -1.00, 1127.5, 557.0)">w</text><text xml:space="preserve" font-family="HelveticaNeue-Bold" font-weight="bold" font-size="50.0" fill="#10DAE2" transform="matrix(1.00, 0.00, -0.00, -1.00, 1166.2, 557.0)"> </text><text xml:space="preserve" font-family="HelveticaNeue-Bold" font-weight="bold" font-size="50.0" fill="#10DAE2" transform="matrix(1.00, 0.00, -0.00, -1.00, 1178.1, 557.0)">i</text><text xml:space="preserve" font-family="HelveticaNeue-Bold" font-weight="bold" font-size="50.0" fill="#10DAE2" transform="matrix(1.00, 0.00, -0.00, -1.00, 1189.0, 557.0)">n</text><text xml:space="preserve" font-family="HelveticaNeue-Bold" font-weight="bold" font-size="50.0" fill="#10DAE2" transform="matrix(1.00, 0.00, -0.00, -1.00, 1216.7, 557.0)"> </text><text xml:space="preserve" font-family="HelveticaNeue-Bold" font-weight="bold" font-size="50.0" fill="#10DAE2" transform="matrix(1.00, 0.00, -0.00, -1.00, 1228.6, 557.0)"> </text><text xml:space="preserve" font-family="HelveticaNeue-BoldItalic" font-style="italic" font-weight="bold" font-size="50.0" fill="#10DAE2" transform="matrix(1.00, 0.00, -0.00, -1.00, 804.0, 491.0)">L</text><text xml:space="preserve" font-family="HelveticaNeue-BoldItalic" font-style="italic" font-weight="bold" font-size="50.0" fill="#10DAE2" transform="matrix(1.00, 0.00, -0.00, -1.00, 830.7, 491.0)">o</text><text xml:space="preserve" font-family="HelveticaNeue-BoldItalic" font-style="italic" font-weight="bold" font-size="50.0" fill="#10DAE2" transform="matrix(1.00, 0.00, -0.00, -1.00, 858.4, 491.0)"> </text><text xml:space="preserve" font-family="HelveticaNeue-BoldItalic" font-style="italic" font-weight="bold" font-size="50.0" fill="#10DAE2" transform="matrix(1.00, 0.00, -0.00, -1.00, 870.3, 491.0)">a</text><text xml:space="preserve" font-family="HelveticaNeue-BoldItalic" font-style="italic" font-weight="bold" font-size="50.0" fill="#10DAE2" transform="matrix(1.00, 0.00, -0.00, -1.00, 897.0, 491.0)">n</text><text xml:space="preserve" font-family="HelveticaNeue-BoldItalic" font-style="italic" font-weight="bold" font-size="50.0" fill="#10DAE2" transform="matrix(1.00, 0.00, -0.00, -1.00, 925.5, 491.0)">d</text><text xml:space="preserve" font-family="HelveticaNeue-BoldItalic" font-style="italic" font-weight="bold" font-size="50.0" fill="#10DAE2" transform="matrix(1.00, 0.00, -0.00, -1.00, 954.1, 491.0)"> </text><text xml:space="preserve" font-family="HelveticaNeue-BoldItalic" font-style="italic" font-weight="bold" font-size="50.0" fill="#10DAE2" transform="matrix(1.00, 0.00, -0.00, -1.00, 966.0, 491.0)">B</text><text xml:space="preserve" font-family="HelveticaNeue-BoldItalic" font-style="italic" font-weight="bold" font-size="50.0" fill="#10DAE2" transform="matrix(1.00, 0.00, -0.00, -1.00, 1000.1, 491.0)">e</text><text xml:space="preserve" font-family="HelveticaNeue-BoldItalic" font-style="italic" font-weight="bold" font-size="50.0" fill="#10DAE2" transform="matrix(1.00, 0.00, -0.00, -1.00, 1026.8, 491.0)">h</text><text xml:space="preserve" font-family="HelveticaNeue-BoldItalic" font-style="italic" font-weight="bold" font-size="50.0" fill="#10DAE2" transform="matrix(1.00, 0.00, -0.00, -1.00, 1055.3, 491.0)">o</text><text xml:space="preserve" font-family="HelveticaNeue-BoldItalic" font-style="italic" font-weight="bold" font-size="50.0" fill="#10DAE2" transform="matrix(1.00, 0.00, -0.00, -1.00, 1083.0, 491.0)">l</text><text xml:space="preserve" font-family="HelveticaNeue-BoldItalic" font-style="italic" font-weight="bold" font-size="50.0" fill="#10DAE2" transform="matrix(1.00, 0.00, -0.00, -1.00, 1093.9, 491.0)">d</text></g></svg>