<?xml version="1.0" encoding="UTF-8" standalone="no"?><svg xmlns="http://www.w3.org/2000/svg" xmlns:xlink="http://www.w3.org/1999/xlink" clip-rule="evenodd" stroke-miterlimit="4.00" viewBox="0 0 1920 1080"><desc>SVG generated by Keynote</desc><defs></defs><g transform="matrix(1.00, 0.00, -0.00, -1.00, 0.0, 1080.0)"><path d="M 0.0 1080.0 L 1920.0 1080.0 L 1920.0 0.0 L 0.0 0.0 Z M 0.0 1080.0 " fill="#000000"></path><path d="M 551.7 846.8 L 1374.4 846.8 L 1374.4 233.2 L 551.7 233.2 Z M 551.7 846.8 " fill="#00FCFF" fill-opacity="0.23"></path><path d="M 0.0 0.0 L 822.8 0.0 L 822.8 613.5 L 0.0 613.5 Z M 0.0 0.0 " fill="none" stroke="#10DAE2" stroke-width="9.00" transform="matrix(1.00, 0.00, 0.00, -1.00, 551.7, 846.8)"></path><path d="M 934.5 268.7 L 1689.8 268.7 L 1689.8 192.9 L 934.5 192.9 Z M 934.5 268.7 " fill="#10DAE2"></path><g><clipPath id="clip-13"><path d="M 923.9 180.9 L 1701.3 180.9 L 1701.3 279.2 L 923.9 279.2 Z M 923.9 180.9 "></path></clipPath><g clip-path="url(#clip-13)"><text xml:space="preserve" font-family="HelveticaNeue-Bold" font-weight="bold" font-size="50.0" fill="#002451" transform="matrix(1.00, 0.00, -0.00, -1.00, 953.0, 214.0)">I</text><text xml:space="preserve" font-family="HelveticaNeue-Bold" font-weight="bold" font-size="50.0" fill="#002451" transform="matrix(1.00, 0.00, -0.00, -1.00, 965.8, 214.0)">n</text><text xml:space="preserve" font-family="HelveticaNeue-Bold" font-weight="bold" font-size="50.0" fill="#002451" transform="matrix(1.00, 0.00, -0.00, -1.00, 993.4, 214.0)">f</text><text xml:space="preserve" font-family="HelveticaNeue-Bold" font-weight="bold" font-size="50.0" fill="#002451" transform="matrix(1.00, 0.00, -0.00, -1.00, 1008.1, 214.0)">o</text><text xml:space="preserve" font-family="HelveticaNeue-Bold" font-weight="bold" font-size="50.0" fill="#002451" transform="matrix(1.00, 0.00, -0.00, -1.00, 1036.6, 214.0)">r</text><text xml:space="preserve" font-family="HelveticaNeue-Bold" font-weight="bold" font-size="50.0" fill="#002451" transform="matrix(1.00, 0.00, -0.00, -1.00, 1054.1, 214.0)">m</text><text xml:space="preserve" font-family="HelveticaNeue-Bold" font-weight="bold" font-size="50.0" fill="#002451" transform="matrix(1.00, 0.00, -0.00, -1.00, 1097.4, 214.0)">a</text><text xml:space="preserve" font-family="HelveticaNeue-Bold" font-weight="bold" font-size="50.0" fill="#002451" transform="matrix(1.00, 0.00, -0.00, -1.00, 1124.1, 214.0)">t</text><text xml:space="preserve" font-family="HelveticaNeue-Bold" font-weight="bold" font-size="50.0" fill="#002451" transform="matrix(1.00, 0.00, -0.00, -1.00, 1139.7, 214.0)">i</text><text xml:space="preserve" font-family="HelveticaNeue-Bold" font-weight="bold" font-size="50.0" fill="#002451" transform="matrix(1.00, 0.00, -0.00, -1.00, 1150.6, 214.0)">o</text><text xml:space="preserve" font-family="HelveticaNeue-Bold" font-weight="bold" font-size="50.0" fill="#002451" transform="matrix(1.00, 0.00, -0.00, -1.00, 1179.1, 214.0)">n</text><text xml:space="preserve" font-family="HelveticaNeue-Bold" font-weight="bold" font-size="50.0" fill="#002451" transform="matrix(1.00, 0.00, -0.00, -1.00, 1206.8, 214.0)"> </text><text xml:space="preserve" font-family="HelveticaNeue-Bold" font-weight="bold" font-size="50.0" fill="#002451" transform="matrix(1.00, 0.00, -0.00, -1.00, 1218.7, 214.0)">s</text><text xml:space="preserve" font-family="HelveticaNeue-Bold" font-weight="bold" font-size="50.0" fill="#002451" transform="matrix(1.00, 0.00, -0.00, -1.00, 1243.5, 214.0)">h</text><text xml:space="preserve" font-family="HelveticaNeue-Bold" font-weight="bold" font-size="50.0" fill="#002451" transform="matrix(1.00, 0.00, -0.00, -1.00, 1271.2, 214.0)">o</text><text xml:space="preserve" font-family="HelveticaNeue-Bold" font-weight="bold" font-size="50.0" fill="#002451" transform="matrix(1.00, 0.00, -0.00, -1.00, 1299.7, 214.0)">u</text><text xml:space="preserve" font-family="HelveticaNeue-Bold" font-weight="bold" font-size="50.0" fill="#002451" transform="matrix(1.00, 0.00, -0.00, -1.00, 1327.4, 214.0)">l</text><text xml:space="preserve" font-family="HelveticaNeue-Bold" font-weight="bold" font-size="50.0" fill="#002451" transform="matrix(1.00, 0.00, -0.00, -1.00, 1338.3, 214.0)">d</text><text xml:space="preserve" font-family="HelveticaNeue-Bold" font-weight="bold" font-size="50.0" fill="#002451" transform="matrix(1.00, 0.00, -0.00, -1.00, 1366.8, 214.0)"> </text><text xml:space="preserve" font-family="HelveticaNeue-Bold" font-weight="bold" font-size="50.0" fill="#002451" transform="matrix(1.00, 0.00, -0.00, -1.00, 1378.7, 214.0)">b</text><text xml:space="preserve" font-family="HelveticaNeue-Bold" font-weight="bold" font-size="50.0" fill="#002451" transform="matrix(1.00, 0.00, -0.00, -1.00, 1407.3, 214.0)">e</text><text xml:space="preserve" font-family="HelveticaNeue-Bold" font-weight="bold" font-size="50.0" fill="#002451" transform="matrix(1.00, 0.00, -0.00, -1.00, 1434.0, 214.0)"> </text><text xml:space="preserve" font-family="HelveticaNeue-Bold" font-weight="bold" font-size="50.0" fill="#002451" transform="matrix(1.00, 0.00, -0.00, -1.00, 1445.9, 214.0)">p</text><text xml:space="preserve" font-family="HelveticaNeue-Bold" font-weight="bold" font-size="50.0" fill="#002451" transform="matrix(1.00, 0.00, -0.00, -1.00, 1474.4, 214.0)">a</text><text xml:space="preserve" font-family="HelveticaNeue-Bold" font-weight="bold" font-size="50.0" fill="#002451" transform="matrix(1.00, 0.00, -0.00, -1.00, 1501.1, 214.0)">r</text><text xml:space="preserve" font-family="HelveticaNeue-Bold" font-weight="bold" font-size="50.0" fill="#002451" transform="matrix(1.00, 0.00, -0.00, -1.00, 1518.6, 214.0)">a</text><text xml:space="preserve" font-family="HelveticaNeue-Bold" font-weight="bold" font-size="50.0" fill="#002451" transform="matrix(1.00, 0.00, -0.00, -1.00, 1545.3, 214.0)">l</text><text xml:space="preserve" font-family="HelveticaNeue-Bold" font-weight="bold" font-size="50.0" fill="#002451" transform="matrix(1.00, 0.00, -0.00, -1.00, 1556.2, 214.0)">l</text><text xml:space="preserve" font-family="HelveticaNeue-Bold" font-weight="bold" font-size="50.0" fill="#002451" transform="matrix(1.00, 0.00, -0.00, -1.00, 1567.1, 214.0)">e</text><text xml:space="preserve" font-family="HelveticaNeue-Bold" font-weight="bold" font-size="50.0" fill="#002451" transform="matrix(1.00, 0.00, -0.00, -1.00, 1593.8, 214.0)">l</text><text xml:space="preserve" font-family="HelveticaNeue-Bold" font-weight="bold" font-size="50.0" fill="#002451" transform="matrix(1.00, 0.00, -0.00, -1.00, 1604.7, 214.0)">e</text><text xml:space="preserve" font-family="HelveticaNeue-Bold" font-weight="bold" font-size="50.0" fill="#002451" transform="matrix(1.00, 0.00, -0.00, -1.00, 1631.4, 214.0)">d</text><text xml:space="preserve" font-family="HelveticaNeue-Bold" font-weight="bold" font-size="50.0" fill="#002451" transform="matrix(1.00, 0.00, -0.00, -1.00, 1659.9, 214.0)">.</text><text xml:space="preserve" font-family="HelveticaNeue-Bold" font-weight="bold" font-size="50.0" fill="#002451" transform="matrix(1.00, 0.00, -0.00, -1.00, 1671.8, 214.0)"> </text><text xml:space="preserve" font-family="HelveticaNeue-Bold" font-weight="bold" font-size="50.0" fill="#002451" transform="matrix(1.00, 0.00, -0.00, -1.00, 1684.2, 209.0)"> </text></g></g><text xml:space="preserve" font-family="HelveticaNeue-Bold" font-weight="bold" font-size="50.0" fill="#10DAE2" transform="matrix(1.00, 0.00, -0.00, -1.00, 686.0, 557.0)">V</text><text xml:space="preserve" font-family="HelveticaNeue-Bold" font-weight="bold" font-size="50.0" fill="#10DAE2" transform="matrix(1.00, 0.00, -0.00, -1.00, 714.6, 557.0)">i</text><text xml:space="preserve" font-family="HelveticaNeue-Bold" font-weight="bold" font-size="50.0" fill="#10DAE2" transform="matrix(1.00, 0.00, -0.00, -1.00, 725.5, 557.0)">d</text><text xml:space="preserve" font-family="HelveticaNeue-Bold" font-weight="bold" font-size="50.0" fill="#10DAE2" transform="matrix(1.00, 0.00, -0.00, -1.00, 754.1, 557.0)">e</text><text xml:space="preserve" font-family="HelveticaNeue-Bold" font-weight="bold" font-size="50.0" fill="#10DAE2" transform="matrix(1.00, 0.00, -0.00, -1.00, 780.8, 557.0)">o</text><text xml:space="preserve" font-family="HelveticaNeue-Bold" font-weight="bold" font-size="50.0" fill="#10DAE2" transform="matrix(1.00, 0.00, -0.00, -1.00, 809.3, 557.0)"> </text><text xml:space="preserve" font-family="HelveticaNeue-Bold" font-weight="bold" font-size="50.0" fill="#10DAE2" transform="matrix(1.00, 0.00, -0.00, -1.00, 821.2, 557.0)">S</text><text xml:space="preserve" font-family="HelveticaNeue-Bold" font-weight="bold" font-size="50.0" fill="#10DAE2" transform="matrix(1.00, 0.00, -0.00, -1.00, 851.7, 557.0)">h</text><text xml:space="preserve" font-family="HelveticaNeue-Bold" font-weight="bold" font-size="50.0" fill="#10DAE2" transform="matrix(1.00, 0.00, -0.00, -1.00, 879.3, 557.0)">o</text><text xml:space="preserve" font-family="HelveticaNeue-Bold" font-weight="bold" font-size="50.0" fill="#10DAE2" transform="matrix(1.00, 0.00, -0.00, -1.00, 907.9, 557.0)">w</text><text xml:space="preserve" font-family="HelveticaNeue-Bold" font-weight="bold" font-size="50.0" fill="#10DAE2" transform="matrix(1.00, 0.00, -0.00, -1.00, 946.6, 557.0)">i</text><text xml:space="preserve" font-family="HelveticaNeue-Bold" font-weight="bold" font-size="50.0" fill="#10DAE2" transform="matrix(1.00, 0.00, -0.00, -1.00, 957.5, 557.0)">n</text><text xml:space="preserve" font-family="HelveticaNeue-Bold" font-weight="bold" font-size="50.0" fill="#10DAE2" transform="matrix(1.00, 0.00, -0.00, -1.00, 985.1, 557.0)">g</text><text xml:space="preserve" font-family="HelveticaNeue-Bold" font-weight="bold" font-size="50.0" fill="#10DAE2" transform="matrix(1.00, 0.00, -0.00, -1.00, 1013.7, 557.0)"> </text><text xml:space="preserve" font-family="HelveticaNeue-Bold" font-weight="bold" font-size="50.0" fill="#10DAE2" transform="matrix(1.00, 0.00, -0.00, -1.00, 1025.6, 557.0)">p</text><text xml:space="preserve" font-family="HelveticaNeue-Bold" font-weight="bold" font-size="50.0" fill="#10DAE2" transform="matrix(1.00, 0.00, -0.00, -1.00, 1054.1, 557.0)">a</text><text xml:space="preserve" font-family="HelveticaNeue-Bold" font-weight="bold" font-size="50.0" fill="#10DAE2" transform="matrix(1.00, 0.00, -0.00, -1.00, 1080.8, 557.0)">r</text><text xml:space="preserve" font-family="HelveticaNeue-Bold" font-weight="bold" font-size="50.0" fill="#10DAE2" transform="matrix(1.00, 0.00, -0.00, -1.00, 1098.3, 557.0)">a</text><text xml:space="preserve" font-family="HelveticaNeue-Bold" font-weight="bold" font-size="50.0" fill="#10DAE2" transform="matrix(1.00, 0.00, -0.00, -1.00, 1125.0, 557.0)">l</text><text xml:space="preserve" font-family="HelveticaNeue-Bold" font-weight="bold" font-size="50.0" fill="#10DAE2" transform="matrix(1.00, 0.00, -0.00, -1.00, 1135.9, 557.0)">l</text><text xml:space="preserve" font-family="HelveticaNeue-Bold" font-weight="bold" font-size="50.0" fill="#10DAE2" transform="matrix(1.00, 0.00, -0.00, -1.00, 1146.8, 557.0)">e</text><text xml:space="preserve" font-family="HelveticaNeue-Bold" font-weight="bold" font-size="50.0" fill="#10DAE2" transform="matrix(1.00, 0.00, -0.00, -1.00, 1173.5, 557.0)">l</text><text xml:space="preserve" font-family="HelveticaNeue-Bold" font-weight="bold" font-size="50.0" fill="#10DAE2" transform="matrix(1.00, 0.00, -0.00, -1.00, 1184.4, 557.0)">e</text><text xml:space="preserve" font-family="HelveticaNeue-Bold" font-weight="bold" font-size="50.0" fill="#10DAE2" transform="matrix(1.00, 0.00, -0.00, -1.00, 1211.1, 557.0)">d</text><text xml:space="preserve" font-family="HelveticaNeue-Bold" font-weight="bold" font-size="50.0" fill="#10DAE2" transform="matrix(1.00, 0.00, -0.00, -1.00, 1239.6, 557.0)"> </text><text xml:space="preserve" font-family="HelveticaNeue-Bold" font-weight="bold" font-size="50.0" fill="#10DAE2" transform="matrix(1.00, 0.00, -0.00, -1.00, 1251.5, 557.0)"> </text><text xml:space="preserve" font-family="HelveticaNeue-Bold" font-weight="bold" font-size="50.0" fill="#10DAE2" transform="matrix(1.00, 0.00, -0.00, -1.00, 725.0, 491.0)">i</text><text xml:space="preserve" font-family="HelveticaNeue-Bold" font-weight="bold" font-size="50.0" fill="#10DAE2" transform="matrix(1.00, 0.00, -0.00, -1.00, 735.9, 491.0)">n</text><text xml:space="preserve" font-family="HelveticaNeue-Bold" font-weight="bold" font-size="50.0" fill="#10DAE2" transform="matrix(1.00, 0.00, -0.00, -1.00, 763.6, 491.0)">f</text><text xml:space="preserve" font-family="HelveticaNeue-Bold" font-weight="bold" font-size="50.0" fill="#10DAE2" transform="matrix(1.00, 0.00, -0.00, -1.00, 778.2, 491.0)">o</text><text xml:space="preserve" font-family="HelveticaNeue-Bold" font-weight="bold" font-size="50.0" fill="#10DAE2" transform="matrix(1.00, 0.00, -0.00, -1.00, 806.8, 491.0)">r</text><text xml:space="preserve" font-family="HelveticaNeue-Bold" font-weight="bold" font-size="50.0" fill="#10DAE2" transform="matrix(1.00, 0.00, -0.00, -1.00, 824.2, 491.0)">m</text><text xml:space="preserve" font-family="HelveticaNeue-Bold" font-weight="bold" font-size="50.0" fill="#10DAE2" transform="matrix(1.00, 0.00, -0.00, -1.00, 867.5, 491.0)">a</text><text xml:space="preserve" font-family="HelveticaNeue-Bold" font-weight="bold" font-size="50.0" fill="#10DAE2" transform="matrix(1.00, 0.00, -0.00, -1.00, 894.2, 491.0)">t</text><text xml:space="preserve" font-family="HelveticaNeue-Bold" font-weight="bold" font-size="50.0" fill="#10DAE2" transform="matrix(1.00, 0.00, -0.00, -1.00, 909.8, 491.0)">i</text><text xml:space="preserve" font-family="HelveticaNeue-Bold" font-weight="bold" font-size="50.0" fill="#10DAE2" transform="matrix(1.00, 0.00, -0.00, -1.00, 920.7, 491.0)">o</text><text xml:space="preserve" font-family="HelveticaNeue-Bold" font-weight="bold" font-size="50.0" fill="#10DAE2" transform="matrix(1.00, 0.00, -0.00, -1.00, 949.3, 491.0)">n</text><text xml:space="preserve" font-family="HelveticaNeue-Bold" font-weight="bold" font-size="50.0" fill="#10DAE2" transform="matrix(1.00, 0.00, -0.00, -1.00, 976.9, 491.0)"> </text><text xml:space="preserve" font-family="HelveticaNeue-Bold" font-weight="bold" font-size="50.0" fill="#10DAE2" transform="matrix(1.00, 0.00, -0.00, -1.00, 988.8, 491.0)">p</text><text xml:space="preserve" font-family="HelveticaNeue-Bold" font-weight="bold" font-size="50.0" fill="#10DAE2" transform="matrix(1.00, 0.00, -0.00, -1.00, 1017.4, 491.0)">r</text><text xml:space="preserve" font-family="HelveticaNeue-Bold" font-weight="bold" font-size="50.0" fill="#10DAE2" transform="matrix(1.00, 0.00, -0.00, -1.00, 1033.9, 491.0)">o</text><text xml:space="preserve" font-family="HelveticaNeue-Bold" font-weight="bold" font-size="50.0" fill="#10DAE2" transform="matrix(1.00, 0.00, -0.00, -1.00, 1062.5, 491.0)">t</text><text xml:space="preserve" font-family="HelveticaNeue-Bold" font-weight="bold" font-size="50.0" fill="#10DAE2" transform="matrix(1.00, 0.00, -0.00, -1.00, 1078.1, 491.0)">o</text><text xml:space="preserve" font-family="HelveticaNeue-Bold" font-weight="bold" font-size="50.0" fill="#10DAE2" transform="matrix(1.00, 0.00, -0.00, -1.00, 1106.6, 491.0)">t</text><text xml:space="preserve" font-family="HelveticaNeue-Bold" font-weight="bold" font-size="50.0" fill="#10DAE2" transform="matrix(1.00, 0.00, -0.00, -1.00, 1122.2, 491.0)">y</text><text xml:space="preserve" font-family="HelveticaNeue-Bold" font-weight="bold" font-size="50.0" fill="#10DAE2" transform="matrix(1.00, 0.00, -0.00, -1.00, 1146.2, 491.0)">p</text><text xml:space="preserve" font-family="HelveticaNeue-Bold" font-weight="bold" font-size="50.0" fill="#10DAE2" transform="matrix(1.00, 0.00, -0.00, -1.00, 1174.7, 491.0)">e</text><text xml:space="preserve" font-family="HelveticaNeue-Bold" font-weight="bold" font-size="50.0" fill="#10DAE2" transform="matrix(1.00, 0.00, -0.00, -1.00, 1201.4, 486.0)"> </text></g></svg>